<svg viewBox="0 0 90 90" xmlns="http://www.w3.org/2000/svg" fill-rule="evenodd" clip-rule="evenodd" stroke-linejoin="round" stroke-miterlimit="1.414"><path d="M45 0c24.836 0 45 20.164 45 45S69.836 90 45 90 0 69.836 0 45 20.164 0 45 0zm-9.615 65l-20.378-9.835c-.004-.001-.007-.006-.007-.01V25l20.385 9.847V65zm20.595 0l-19.553-9.699 4.759-4.594L55.98 65zM75 64.01l-17.812-8.596v8.596H75zm-18.854-.286L41.923 49.996l14.223-13.728v27.456zM35.833 25l20.343 9.817-19.749 19.062V34.132l-6.759-3.181L35.833 25z" fill="#0d0d0d"/></svg>