<svg width="100%"
     height="100%"
     viewBox="0 0 90 90"
     version="1.1"
     xmlns="http://www.w3.org/2000/svg"
     xml:space="preserve"  style="fill-rule:evenodd;clip-rule:evenodd;stroke-linejoin:round;stroke-miterlimit:1.41421;">
  <path d="M45,0c24.836,0 45,20.164 45,45c0,24.836 -20.164,45 -45,45c-24.836,0 -45,-20.164 -45,-45c0,-24.836 20.164,-45 45,-45Zm-9.615,65c0,0 -19.957,-9.631 -20.378,-9.835c-0.004,-0.001 -0.007,-0.006 -0.007,-0.01c0,-0.541 0,-30.155 0,-30.155l20.385,9.847l0,30.153Zm20.595,0l-19.553,-9.699l4.759,-4.594l14.794,14.293Zm19.02,-0.99l-17.812,-8.596l0,8.596l17.812,0Zm-18.854,-0.286l-14.223,-13.728l14.223,-13.728l0,27.456Zm-20.313,-38.724l20.343,9.817l-19.749,19.062l0,-19.747l-6.759,-3.181l6.165,-5.951Z" style="fill:#0d0d0d;"/>
</svg>
