<svg width="60" height="40" viewBox="0 0 300 200" preserveAspectRatio="xMidYMid meet" fill="currentColor" xmlns="http://www.w3.org/2000/svg" xmlns:xlink="http://www.w3.org/1999/xlink" xml:space="preserve" style="fill-rule:evenodd;clip-rule:evenodd;stroke-linejoin:round;stroke-miterlimit:1.41421;">
    <g transform="matrix(1,0,0,1,-50,-33.8873)">
        <g transform="matrix(1.04167,0,0,1.00541,-12.5,-0.18328)">
            <path d="M348,227.887L262.5,227.887L262.5,185.137L348,227.887ZM157.848,232.811C157.848,232.811 62.053,184.914 60.032,183.903C60.013,183.894 60,183.873 60,183.85C60,181.16 60,33.887 60,33.887L157.848,82.859L157.848,232.811ZM256.703,232.811L162.848,184.575L185.694,161.729L256.703,232.811ZM257.5,226.464L189.229,158.194L257.5,89.923L257.5,226.464ZM160,33.887L257.643,82.709L162.848,177.503L162.848,79.304L130.407,63.481L160,33.887Z"/>
        </g>
    </g>
</svg>
