<svg width="388" height="76" xmlns="http://www.w3.org/2000/svg"><path d="M195.97 67.517c0 1.338 0 1.642.908 2.463l5.09 4.985v.213h-22.57v-9.576c-2.27 6.311-8.278 10.485-14.965 10.397-11.602 0-20.024-9.12-20.024-25.9 0-15.717 9.089-26.205 21.842-26.205a13.325 13.325 0 0 1 13.117 8.147V10.913a2.619 2.619 0 0 0-1.03-2.553l-4.847-4.682v-.212L195.97.82v66.696zm-16.571-3.04V32.953a8.44 8.44 0 0 0-6.726-3.162c-5.483 0-10.784 4.986-10.784 19.79 0 13.863 4.574 18.757 10.27 18.757a9.08 9.08 0 0 0 7.24-3.86zm31.535 10.7V32.62a2.863 2.863 0 0 0-.909-2.554l-4.998-5.168v-.213h22.569v43.168c0 1.337 0 1.641.908 2.462l4.969 4.681v.213l-22.539-.03zm-.818-66.057c0-5.037 4.069-9.12 9.088-9.12 5.02 0 9.088 4.083 9.088 9.12 0 5.037-4.069 9.12-9.088 9.12-5.019 0-9.088-4.083-9.088-9.12zm78.37 58.306c0 1.338 0 1.733.908 2.554l5.09 4.985v.213h-22.69V64.264c-2.066 6.901-8.361 11.654-15.54 11.735-10.058 0-15.45-7.357-15.45-21.28 0-6.718 0-14.075.212-22.344a2.589 2.589 0 0 0-.91-2.462l-4.998-5.016v-.213h22.387V52.44c0 9.12 1.333 15.2 7.028 15.2a9.085 9.085 0 0 0 7.331-4.59v-30.4a2.863 2.863 0 0 0-.908-2.554l-5.03-5.198v-.213h22.57v42.742zm76.824 7.752c0-1.642.303-22.557.303-27.36 0-9.12-1.424-15.412-7.816-15.412a10.14 10.14 0 0 0-8.027 4.377c.64 2.842.946 5.75.908 8.664 0 6.323-.212 14.38-.303 22.435a2.589 2.589 0 0 0 .91 2.462l5.089 4.682v.213h-22.781c0-1.52.303-22.557.303-27.36 0-9.272-1.424-15.412-7.725-15.412a9.083 9.083 0 0 0-7.513 4.499v31.007c0 1.338 0 1.642.909 2.463l4.968 4.681v.213h-22.538V32.77a2.863 2.863 0 0 0-.91-2.553l-4.998-5.32v-.213h22.569v10.823c2.092-7.146 8.761-11.946 16.177-11.643 7.513 0 12.602 4.195 14.753 12.16 2.389-7.346 9.265-12.275 16.964-12.16 10.058 0 15.753 7.447 15.753 21.522 0 6.719-.212 14.38-.303 22.435a2.436 2.436 0 0 0 1.03 2.463L388 74.965v.213h-22.69zM81.793 68.55l6.695 6.414v.213h-33.96v-.213l6.816-6.414a2.589 2.589 0 0 0 .91-2.463V25.08c0-1.733 0-4.074.302-6.08L39.654 75.999h-.272l-23.72-52.44c-.515-1.307-.667-1.398-1-2.28v34.382a11.984 11.984 0 0 0 1.12 6.719l9.543 12.585v.213H0v-.213L9.542 62.35a12.014 12.014 0 0 0 1.121-6.688v-38a7.374 7.374 0 0 0-1.575-5.198L2.333 3.678v-.212h24.234l20.297 44.413L64.737 3.466h23.72v.212l-6.664 7.448a2.619 2.619 0 0 0-1.03 2.554v52.408a2.436 2.436 0 0 0 1.03 2.463zM108.36 48v.213c0 13.01 6.695 18.24 14.541 18.24a16.503 16.503 0 0 0 15.45-9.394h.212c-2.727 12.859-10.664 18.939-22.539 18.939-12.814 0-24.901-7.752-24.901-25.718 0-18.878 12.117-26.417 25.507-26.417 10.785 0 22.266 5.107 22.266 21.522V48H108.36zm0-2.615h14.935v-2.644c0-13.376-2.757-16.933-6.907-16.933-5.029 0-8.089 5.32-8.089 19.577h.061z" fill="#FFF"/></svg>